<?xml version="1.0" encoding="utf-8"?>
<!-- Generated by IcoMoon.io -->
<!DOCTYPE svg PUBLIC "-//W3C//DTD SVG 1.1//EN" "http://www.w3.org/Graphics/SVG/1.1/DTD/svg11.dtd">
<svg version="1.1" xmlns="http://www.w3.org/2000/svg" xmlns:xlink="http://www.w3.org/1999/xlink" width="32" height="32" viewBox="0 0 32 32">
<path fill="#142a3b" d="M21.912 26.577l-5.486-7.352-0.431 0.316 2.465 3.303h-8.611l2.465-3.303-0.431-0.316-7.852 10.523 0.431 0.316 4.939-6.619h9.509l2.572 3.447 0.431-0.316z"></path>
<path fill="#142a3b" d="M14.295 20.978c-4.504 0-8.156-3.617-8.156-8.079h16.312c0 4.462-3.651 8.079-8.156 8.079z"></path>
<path opacity="0.35" fill="#020403" d="M6.139 12.898c0 0.541 0.056 0.542 0.158 1.054l12.431 1.054c0 2.606-1.251 4.391-3.184 5.868 3.91-0.597 6.907-3.935 6.907-7.975h-16.312z"></path>
<path fill="#ff3a2f" d="M23.846 13.27h-19.102c-0.294 0-0.532-0.236-0.532-0.527s0.238-0.527 0.532-0.527h19.102c0.294 0 0.532 0.236 0.532 0.527s-0.238 0.527-0.532 0.527z"></path>
<path fill="#ff3a2f" d="M20.711 29.259c0.573 1.204 2.022 1.72 3.237 1.152s1.736-2.003 1.163-3.207c-0.573-1.204-2.022-1.72-3.237-1.153s-1.736 2.003-1.163 3.207zM22.4 27.155c0.6-0.28 1.315-0.025 1.598 0.569s0.026 1.303-0.574 1.583c-0.6 0.28-1.315 0.025-1.598-0.569s-0.026-1.303 0.574-1.583z"></path>
<path fill="#ff3a2f" d="M2.051 30.642h4.7v-1.011h-4.7v1.011z"></path>
<path fill="#ff3a2f" d="M19.494 3.609c-0.236-0.171-0.484-0.33-0.742-0.477 0.134-0.734-0.184-1.428-0.765-1.599l-1.484-0.437c-0.59-0.174-1.251 0.251-1.537 0.958-0.297-0.011-0.592-0.006-0.885 0.015l0.245-0.818c0.242-0.807 0.96-1.314 1.596-1.127l3.084 0.908c0.636 0.187 0.959 1 0.717 1.807l-0.23 0.768z"></path>
<path opacity="0.35" fill="#020403" d="M12.862 15.885c0.224 0.067 0.454 0.121 0.688 0.164 0.096 0.59 0.523 1.029 1.008 1.005l1.238-0.062c0.492-0.025 0.877-0.519 0.903-1.129 0.227-0.070 0.448-0.152 0.664-0.245l0.035 0.682c0.034 0.673-0.372 1.245-0.903 1.272l-2.572 0.128c-0.53 0.026-0.993-0.503-1.027-1.176l-0.033-0.641z"></path>
<path fill="#ffe56d" d="M12.331 14.832c0.224 0.067 0.454 0.121 0.688 0.164 0.096 0.589 0.523 1.029 1.008 1.005l1.238-0.062c0.492-0.025 0.877-0.519 0.903-1.129 0.227-0.070 0.448-0.152 0.664-0.245l0.035 0.682c0.034 0.673-0.372 1.245-0.902 1.272l-2.573 0.128c-0.53 0.026-0.992-0.503-1.027-1.176l-0.033-0.641z"></path>
<path fill="#142a3b" d="M17.313 2.484c4.262 1.443 6.536 6.036 5.080 10.259l-15.435-5.226c1.457-4.222 6.093-6.476 10.356-5.032z"></path>
<path fill="#fff" d="M8.919 6.252c-0.062 0-0.124-0.021-0.173-0.064-0.112-0.095-0.124-0.261-0.028-0.372 1.137-1.305 2.692-2.25 4.378-2.66 0.144-0.035 0.287 0.052 0.322 0.193s-0.052 0.284-0.195 0.319c-1.58 0.385-3.037 1.27-4.102 2.492-0.053 0.060-0.127 0.091-0.201 0.091z"></path>
<path opacity="0.35" fill="#020403" d="M17.313 2.484c-0.564-0.191-1.134-0.313-1.702-0.378 3.272 1.897 4.86 5.867 3.598 9.559l3.184 1.078c1.457-4.223-0.817-8.815-5.080-10.259z"></path>
<path opacity="0.35" fill="#020403" d="M11.57 14.747v0.444c0 0.086-0.129 0.155-0.288 0.155s-0.288-0.069-0.288-0.155v-0.021c0-0.085-0.129-0.155-0.288-0.155s-0.288 0.070-0.288 0.155v0.954c0 0.086-0.129 0.155-0.288 0.155s-0.288-0.070-0.288-0.155v-2.407c0-0.086 0.129-0.155 0.288-0.155s0.288 0.070 0.288 0.155v0.265c0 0.086 0.129 0.155 0.288 0.155s0.288-0.069 0.288-0.155v-1.261c0-0.086 0.129-0.155 0.288-0.155s0.288 0.069 0.288 0.155v2.026z"></path>
<path fill="#ddc100" d="M3.747 20.018h0.763c0.147 0 0.266 0.128 0.266 0.285s-0.119 0.285-0.266 0.285h-0.035c-0.147 0-0.266 0.128-0.266 0.285s0.119 0.285 0.266 0.285h1.64c0.147 0 0.266 0.128 0.266 0.285s-0.119 0.285-0.266 0.285h-4.137c-0.147 0-0.266-0.128-0.266-0.285s0.119-0.285 0.266-0.285h0.455c0.147 0 0.266-0.128 0.266-0.285s-0.119-0.285-0.266-0.285h-2.166c-0.147 0-0.266-0.128-0.266-0.285s0.119-0.285 0.266-0.285h3.48z"></path>
<path fill="#ddc100" d="M23.653 29.631h2.241c0.432 0 0.782 0.171 0.782 0.381s-0.35 0.381-0.782 0.381h-0.104c-0.432 0-0.783 0.17-0.783 0.38s0.35 0.381 0.783 0.381h4.818c0.432 0 0.782 0.17 0.782 0.38s-0.35 0.381-0.782 0.381h-12.154c-0.432 0-0.782-0.17-0.782-0.381s0.35-0.38 0.782-0.38h1.337c0.432 0 0.782-0.17 0.782-0.381s-0.35-0.38-0.782-0.38h-6.364c-0.432 0-0.783-0.17-0.783-0.381s0.35-0.381 0.783-0.381h10.226z"></path>
<path fill="#ff3a2f" d="M29.453 22.849h0.738c0.142 0 0.258 0.115 0.258 0.257s-0.115 0.257-0.258 0.257h-0.034c-0.142 0-0.257 0.115-0.257 0.257s0.115 0.257 0.257 0.257h1.586c0.142 0 0.258 0.115 0.258 0.257s-0.115 0.257-0.258 0.257h-4c-0.142 0-0.258-0.115-0.258-0.257s0.115-0.257 0.258-0.257h0.44c0.142 0 0.258-0.115 0.258-0.257s-0.115-0.257-0.258-0.257h-2.095c-0.142 0-0.258-0.115-0.258-0.257s0.115-0.257 0.258-0.257h3.366z"></path>
<path fill="#ddc100" d="M11.039 14.747v0.444c0 0.086-0.129 0.155-0.288 0.155s-0.288-0.069-0.288-0.155v-0.021c0-0.085-0.129-0.155-0.288-0.155s-0.288 0.070-0.288 0.155v0.954c0 0.086-0.129 0.155-0.288 0.155s-0.288-0.070-0.288-0.155v-2.407c0-0.086 0.129-0.155 0.288-0.155s0.288 0.070 0.288 0.155v0.265c0 0.086 0.129 0.155 0.288 0.155s0.288-0.069 0.288-0.155v-1.261c0-0.086 0.129-0.155 0.288-0.155s0.288 0.069 0.288 0.155v2.026z"></path>
</svg>
